<mxfile host="app.diagrams.net" modified="2024-03-06T06:10:24.722Z" agent="Mozilla/5.0 (Macintosh; Intel Mac OS X 10_15_7) AppleWebKit/537.36 (KHTML, like Gecko) Chrome/121.0.0.0 Safari/537.36" etag="P07R8SHkaHoWE72BZ2O0" version="23.0.2" type="github">
  <diagram name="PÃ¡gina-1" id="yoPz0rujgMvUbTxp1bWk">
    <mxGraphModel dx="2536" dy="1012" grid="1" gridSize="10" guides="1" tooltips="1" connect="1" arrows="1" fold="1" page="1" pageScale="1" pageWidth="827" pageHeight="1169" math="0" shadow="0">
      <root>
        <mxCell id="0" />
        <mxCell id="1" parent="0" />
        <mxCell id="oiACmsicqmKahSeFU9eq-1" value="LOGO" style="rounded=0;whiteSpace=wrap;html=1;" vertex="1" parent="1">
          <mxGeometry x="40" y="20" width="120" height="60" as="geometry" />
        </mxCell>
        <mxCell id="oiACmsicqmKahSeFU9eq-4" value="" style="rounded=0;whiteSpace=wrap;html=1;" vertex="1" parent="1">
          <mxGeometry x="40" y="100" width="760" height="320" as="geometry" />
        </mxCell>
        <mxCell id="oiACmsicqmKahSeFU9eq-5" value="&lt;h1&gt;Heading&lt;/h1&gt;&lt;p&gt;Lorem ipsum dolor sit amet, consectetur adipisicing elit, sed do eiusmod tempor incididunt ut labore et dolore magna aliqua.&lt;/p&gt;" style="text;html=1;strokeColor=none;fillColor=none;spacing=5;spacingTop=-20;whiteSpace=wrap;overflow=hidden;rounded=0;" vertex="1" parent="1">
          <mxGeometry x="90" y="190" width="270" height="120" as="geometry" />
        </mxCell>
        <mxCell id="oiACmsicqmKahSeFU9eq-6" value="" style="rounded=0;whiteSpace=wrap;html=1;" vertex="1" parent="1">
          <mxGeometry x="40" y="440" width="360" height="200" as="geometry" />
        </mxCell>
        <mxCell id="oiACmsicqmKahSeFU9eq-7" value="" style="rounded=0;whiteSpace=wrap;html=1;" vertex="1" parent="1">
          <mxGeometry x="440" y="440" width="360" height="200" as="geometry" />
        </mxCell>
        <mxCell id="oiACmsicqmKahSeFU9eq-8" value="" style="rounded=0;whiteSpace=wrap;html=1;" vertex="1" parent="1">
          <mxGeometry x="40" y="730" width="360" height="200" as="geometry" />
        </mxCell>
        <mxCell id="oiACmsicqmKahSeFU9eq-9" value="" style="rounded=0;whiteSpace=wrap;html=1;" vertex="1" parent="1">
          <mxGeometry x="440" y="730" width="360" height="200" as="geometry" />
        </mxCell>
        <mxCell id="oiACmsicqmKahSeFU9eq-11" value="&lt;h1 style=&quot;font-size: 11px;&quot;&gt;Heading&lt;/h1&gt;&lt;p style=&quot;font-size: 11px;&quot;&gt;Lorem ipsum dolor sit amet, consectetur adipisicing elit, sed do eiusmod tempor incididunt ut labore et dolore magna aliqua.&lt;/p&gt;" style="text;html=1;strokeColor=none;fillColor=none;spacing=5;spacingTop=-20;whiteSpace=wrap;overflow=hidden;rounded=0;fontSize=11;" vertex="1" parent="1">
          <mxGeometry x="40" y="660" width="360" height="60" as="geometry" />
        </mxCell>
        <mxCell id="oiACmsicqmKahSeFU9eq-12" value="&lt;h1 style=&quot;font-size: 11px;&quot;&gt;Heading&lt;/h1&gt;&lt;p style=&quot;font-size: 11px;&quot;&gt;Lorem ipsum dolor sit amet, consectetur adipisicing elit, sed do eiusmod tempor incididunt ut labore et dolore magna aliqua.&lt;/p&gt;" style="text;html=1;strokeColor=none;fillColor=none;spacing=5;spacingTop=-20;whiteSpace=wrap;overflow=hidden;rounded=0;fontSize=11;" vertex="1" parent="1">
          <mxGeometry x="440" y="660" width="360" height="60" as="geometry" />
        </mxCell>
        <mxCell id="oiACmsicqmKahSeFU9eq-13" value="&lt;h1 style=&quot;font-size: 11px;&quot;&gt;Heading&lt;/h1&gt;&lt;p style=&quot;font-size: 11px;&quot;&gt;Lorem ipsum dolor sit amet, consectetur adipisicing elit, sed do eiusmod tempor incididunt ut labore et dolore magna aliqua.&lt;/p&gt;" style="text;html=1;strokeColor=none;fillColor=none;spacing=5;spacingTop=-20;whiteSpace=wrap;overflow=hidden;rounded=0;fontSize=11;" vertex="1" parent="1">
          <mxGeometry x="40" y="950" width="360" height="60" as="geometry" />
        </mxCell>
        <mxCell id="oiACmsicqmKahSeFU9eq-14" value="&lt;h1 style=&quot;font-size: 11px;&quot;&gt;Heading&lt;/h1&gt;&lt;p style=&quot;font-size: 11px;&quot;&gt;Lorem ipsum dolor sit amet, consectetur adipisicing elit, sed do eiusmod tempor incididunt ut labore et dolore magna aliqua.&lt;/p&gt;" style="text;html=1;strokeColor=none;fillColor=none;spacing=5;spacingTop=-20;whiteSpace=wrap;overflow=hidden;rounded=0;fontSize=11;" vertex="1" parent="1">
          <mxGeometry x="440" y="950" width="360" height="60" as="geometry" />
        </mxCell>
        <mxCell id="oiACmsicqmKahSeFU9eq-16" value="" style="rounded=0;whiteSpace=wrap;html=1;" vertex="1" parent="1">
          <mxGeometry x="40" y="1030" width="760" height="110" as="geometry" />
        </mxCell>
        <mxCell id="oiACmsicqmKahSeFU9eq-17" value="" style="ellipse;whiteSpace=wrap;html=1;aspect=fixed;verticalAlign=middle;" vertex="1" parent="1">
          <mxGeometry x="80" y="1071" width="30" height="30" as="geometry" />
        </mxCell>
        <mxCell id="oiACmsicqmKahSeFU9eq-18" value="" style="ellipse;whiteSpace=wrap;html=1;aspect=fixed;verticalAlign=middle;" vertex="1" parent="1">
          <mxGeometry x="120" y="1071" width="30" height="30" as="geometry" />
        </mxCell>
        <mxCell id="oiACmsicqmKahSeFU9eq-19" value="" style="ellipse;whiteSpace=wrap;html=1;aspect=fixed;verticalAlign=middle;" vertex="1" parent="1">
          <mxGeometry x="160" y="1071" width="30" height="30" as="geometry" />
        </mxCell>
        <mxCell id="oiACmsicqmKahSeFU9eq-20" value="" style="ellipse;whiteSpace=wrap;html=1;aspect=fixed;verticalAlign=middle;" vertex="1" parent="1">
          <mxGeometry x="200" y="1071" width="30" height="30" as="geometry" />
        </mxCell>
        <mxCell id="oiACmsicqmKahSeFU9eq-21" value="&lt;h1 style=&quot;font-size: 9px;&quot;&gt;Heading&lt;/h1&gt;&lt;p style=&quot;font-size: 9px;&quot;&gt;Lorem ipsum dolor sit amet, consectetur adipisicing elit, sed do eiusmod tempor incididunt ut labore et dolore magna aliqua.&lt;/p&gt;" style="text;html=1;strokeColor=none;fillColor=none;spacing=5;spacingTop=-20;whiteSpace=wrap;overflow=hidden;rounded=0;fontSize=9;" vertex="1" parent="1">
          <mxGeometry x="310" y="1070" width="450" height="60" as="geometry" />
        </mxCell>
        <mxCell id="oiACmsicqmKahSeFU9eq-23" value="" style="rounded=0;whiteSpace=wrap;html=1;" vertex="1" parent="1">
          <mxGeometry x="280" y="50" width="520" height="30" as="geometry" />
        </mxCell>
        <mxCell id="oiACmsicqmKahSeFU9eq-24" value="" style="rounded=0;whiteSpace=wrap;html=1;verticalAlign=middle;" vertex="1" parent="1">
          <mxGeometry x="90" y="330" width="270" height="30" as="geometry" />
        </mxCell>
        <mxCell id="oiACmsicqmKahSeFU9eq-25" value="" style="rounded=0;whiteSpace=wrap;html=1;verticalAlign=middle;" vertex="1" parent="1">
          <mxGeometry x="180" y="370" width="100" height="30" as="geometry" />
        </mxCell>
      </root>
    </mxGraphModel>
  </diagram>
</mxfile>
